<svg xmlns="http://www.w3.org/2000/svg" xmlns:xlink="http://www.w3.org/1999/xlink" width="500" zoomAndPan="magnify" viewBox="0 0 375 374.999991" height="500" preserveAspectRatio="xMidYMid meet" version="1.0"><defs><g/><clipPath id="f67a4e5e2d"><path d="M 0 172.769531 L 375 172.769531 L 375 202.019531 L 0 202.019531 Z M 0 172.769531 " clip-rule="nonzero"/></clipPath></defs><g fill="#000000" fill-opacity="1"><g transform="translate(49.080275, 269.783923)"><g><path d="M 25.03125 0 L 25.03125 -164.53125 L 119.46875 -164.53125 L 119.46875 -155.421875 L 33.90625 -155.421875 L 33.90625 -87.84375 L 113.546875 -87.84375 L 113.546875 -78.515625 L 33.90625 -78.515625 L 33.90625 -9.5625 L 122.65625 -9.328125 L 122.65625 0 Z M 25.03125 0 "/></g></g></g><g fill="#000000" fill-opacity="1"><g transform="translate(177.313422, 269.783923)"><g><path d="M 74.984375 2.28125 C 67.617188 2.28125 60.582031 1.351562 53.875 -0.5 C 47.164062 -2.363281 41.117188 -5.097656 35.734375 -8.703125 C 30.347656 -12.304688 25.851562 -16.742188 22.25 -22.015625 C 18.644531 -27.285156 16.234375 -33.375 15.015625 -40.28125 L 25.03125 -40.28125 C 26.695312 -32.84375 29.976562 -26.617188 34.875 -21.609375 C 39.769531 -16.609375 45.707031 -12.851562 52.6875 -10.34375 C 59.664062 -7.84375 67.097656 -6.59375 74.984375 -6.59375 C 84.390625 -6.59375 92.65625 -8.015625 99.78125 -10.859375 C 106.914062 -13.710938 112.507812 -17.640625 116.5625 -22.640625 C 120.625 -27.648438 122.65625 -33.378906 122.65625 -39.828125 C 122.65625 -45.660156 121.628906 -50.851562 119.578125 -55.40625 C 117.535156 -59.957031 114.367188 -63.828125 110.078125 -67.015625 C 105.796875 -70.203125 100.203125 -72.664062 93.296875 -74.40625 L 57.34375 -83.515625 C 45.4375 -86.546875 36.257812 -91.113281 29.8125 -97.21875 C 23.363281 -103.332031 20.140625 -111.28125 20.140625 -121.0625 C 20.140625 -129.707031 22.375 -137.460938 26.84375 -144.328125 C 31.320312 -151.191406 37.597656 -156.613281 45.671875 -160.59375 C 53.753906 -164.582031 63.222656 -166.578125 74.078125 -166.578125 C 86.285156 -166.578125 96.46875 -164.316406 104.625 -159.796875 C 112.78125 -155.285156 118.921875 -149.539062 123.046875 -142.5625 C 127.179688 -135.582031 129.210938 -128.414062 129.140625 -121.0625 L 119.125 -121.0625 C 118.289062 -130.164062 115.617188 -137.351562 111.109375 -142.625 C 106.597656 -147.894531 101.0625 -151.648438 94.5 -153.890625 C 87.9375 -156.128906 81.015625 -157.25 73.734375 -157.25 C 68.878906 -157.25 63.867188 -156.546875 58.703125 -155.140625 C 53.546875 -153.734375 48.769531 -151.570312 44.375 -148.65625 C 39.976562 -145.738281 36.410156 -142.019531 33.671875 -137.5 C 30.941406 -132.988281 29.578125 -127.585938 29.578125 -121.296875 C 29.578125 -114.234375 32.039062 -108.460938 36.96875 -103.984375 C 41.90625 -99.515625 50.671875 -95.613281 63.265625 -92.28125 L 97.734375 -83.171875 C 104.109375 -81.503906 109.492188 -79.207031 113.890625 -76.28125 C 118.296875 -73.363281 121.84375 -70.007812 124.53125 -66.21875 C 127.226562 -62.425781 129.179688 -58.328125 130.390625 -53.921875 C 131.609375 -49.523438 132.21875 -44.976562 132.21875 -40.28125 C 132.21875 -32.539062 130.09375 -25.445312 125.84375 -19 C 121.59375 -12.550781 115.238281 -7.390625 106.78125 -3.515625 C 98.320312 0.347656 87.722656 2.28125 74.984375 2.28125 Z M 74.984375 2.28125 "/></g></g></g><g clip-path="url(#f67a4e5e2d)"><path fill="#ffffff" d="M 0.0195312 172.769531 L 374.980469 172.769531 L 374.980469 202.019531 L 0.0195312 202.019531 L 0.0195312 172.769531 " fill-opacity="1" fill-rule="nonzero"/></g><g fill="#000000" fill-opacity="1"><g transform="translate(103.362236, 195.036405)"><g><path d="M 2.03125 0 L 2.03125 -15.328125 L 11.6875 -15.328125 L 11.6875 -13.609375 L 4 -13.609375 L 4 -8.59375 L 10.921875 -8.59375 L 10.921875 -6.875 L 3.984375 -6.875 L 3.984375 -1.765625 L 11.890625 -1.75 L 11.890625 0 Z M 2.03125 0 "/></g></g></g><g fill="#000000" fill-opacity="1"><g transform="translate(119.704628, 195.036405)"><g><path d="M 13.640625 -15.328125 L 8.1875 0 L 5.828125 0 L 0.484375 -15.328125 L 2.421875 -15.328125 L 7.015625 -2.234375 L 11.703125 -15.328125 Z M 13.640625 -15.328125 "/></g></g></g><g fill="#000000" fill-opacity="1"><g transform="translate(137.012039, 195.036405)"><g><path d="M 2.03125 0 L 2.03125 -15.328125 L 11.6875 -15.328125 L 11.6875 -13.609375 L 4 -13.609375 L 4 -8.59375 L 10.921875 -8.59375 L 10.921875 -6.875 L 3.984375 -6.875 L 3.984375 -1.765625 L 11.890625 -1.75 L 11.890625 0 Z M 2.03125 0 "/></g></g></g><g fill="#000000" fill-opacity="1"><g transform="translate(153.354432, 195.036405)"><g><path d="M 12 -15.328125 L 13.96875 -15.328125 L 13.96875 0 L 12.21875 0 L 3.984375 -12.078125 L 3.984375 0 L 2.03125 0 L 2.03125 -15.328125 L 3.90625 -15.328125 L 12 -3.40625 Z M 12 -15.328125 "/></g></g></g><g fill="#000000" fill-opacity="1"><g transform="translate(172.528261, 195.036405)"><g><path d="M 0.484375 -13.53125 L 0.484375 -15.328125 L 12.078125 -15.328125 L 12.078125 -13.53125 L 7.40625 -13.53125 L 7.40625 0 L 5.4375 0 L 5.4375 -13.53125 Z M 0.484375 -13.53125 "/></g></g></g><g fill="#000000" fill-opacity="1"><g transform="translate(188.298003, 195.036405)"><g><path d="M 7.234375 0.21875 C 6.515625 0.21875 5.8125 0.128906 5.125 -0.046875 C 4.445312 -0.234375 3.832031 -0.503906 3.28125 -0.859375 C 2.726562 -1.222656 2.269531 -1.671875 1.90625 -2.203125 C 1.550781 -2.742188 1.328125 -3.367188 1.234375 -4.078125 L 3.28125 -4.078125 C 3.414062 -3.492188 3.671875 -3.003906 4.046875 -2.609375 C 4.421875 -2.210938 4.878906 -1.914062 5.421875 -1.71875 C 5.972656 -1.519531 6.570312 -1.421875 7.21875 -1.421875 C 7.9375 -1.421875 8.582031 -1.519531 9.15625 -1.71875 C 9.726562 -1.925781 10.175781 -2.21875 10.5 -2.59375 C 10.832031 -2.96875 11 -3.414062 11 -3.9375 C 11 -4.394531 10.894531 -4.789062 10.6875 -5.125 C 10.476562 -5.46875 10.175781 -5.75 9.78125 -5.96875 C 9.382812 -6.195312 8.898438 -6.378906 8.328125 -6.515625 L 5.328125 -7.203125 C 4.191406 -7.453125 3.300781 -7.894531 2.65625 -8.53125 C 2.019531 -9.164062 1.695312 -10.007812 1.6875 -11.0625 C 1.6875 -11.9375 1.921875 -12.707031 2.390625 -13.375 C 2.859375 -14.050781 3.503906 -14.578125 4.328125 -14.953125 C 5.148438 -15.328125 6.09375 -15.515625 7.15625 -15.515625 C 8.375 -15.515625 9.398438 -15.304688 10.234375 -14.890625 C 11.066406 -14.472656 11.695312 -13.925781 12.125 -13.25 C 12.550781 -12.570312 12.769531 -11.847656 12.78125 -11.078125 L 10.75 -11.078125 C 10.6875 -11.773438 10.484375 -12.328125 10.140625 -12.734375 C 9.796875 -13.140625 9.363281 -13.425781 8.84375 -13.59375 C 8.332031 -13.769531 7.773438 -13.859375 7.171875 -13.859375 C 6.734375 -13.859375 6.3125 -13.800781 5.90625 -13.6875 C 5.5 -13.582031 5.132812 -13.421875 4.8125 -13.203125 C 4.488281 -12.984375 4.226562 -12.707031 4.03125 -12.375 C 3.84375 -12.050781 3.75 -11.675781 3.75 -11.25 C 3.75 -10.695312 3.9375 -10.242188 4.3125 -9.890625 C 4.695312 -9.546875 5.382812 -9.253906 6.375 -9.015625 L 9.296875 -8.3125 C 10.054688 -8.144531 10.675781 -7.898438 11.15625 -7.578125 C 11.644531 -7.265625 12.019531 -6.90625 12.28125 -6.5 C 12.550781 -6.101562 12.738281 -5.6875 12.84375 -5.25 C 12.945312 -4.8125 13 -4.378906 13 -3.953125 C 13 -3.179688 12.769531 -2.476562 12.3125 -1.84375 C 11.851562 -1.21875 11.191406 -0.71875 10.328125 -0.34375 C 9.472656 0.03125 8.441406 0.21875 7.234375 0.21875 Z M 7.234375 0.21875 "/></g></g></g><g fill="#000000" fill-opacity="1"><g transform="translate(205.764486, 195.036405)"><g><path d="M 7.671875 -15.546875 C 8.742188 -15.546875 9.695312 -15.320312 10.53125 -14.875 C 11.363281 -14.425781 12.035156 -13.828125 12.546875 -13.078125 C 13.054688 -12.328125 13.359375 -11.5 13.453125 -10.59375 L 11.359375 -10.59375 C 11.242188 -11.195312 11.023438 -11.742188 10.703125 -12.234375 C 10.390625 -12.722656 9.972656 -13.109375 9.453125 -13.390625 C 8.941406 -13.679688 8.328125 -13.828125 7.609375 -13.828125 C 6.679688 -13.828125 5.894531 -13.609375 5.25 -13.171875 C 4.613281 -12.742188 4.128906 -12.078125 3.796875 -11.171875 C 3.472656 -10.265625 3.3125 -9.109375 3.3125 -7.703125 C 3.3125 -5.566406 3.675781 -4 4.40625 -3 C 5.144531 -2 6.210938 -1.5 7.609375 -1.5 C 8.328125 -1.5 8.941406 -1.648438 9.453125 -1.953125 C 9.972656 -2.253906 10.390625 -2.660156 10.703125 -3.171875 C 11.023438 -3.679688 11.242188 -4.234375 11.359375 -4.828125 L 13.453125 -4.828125 C 13.378906 -4.171875 13.203125 -3.539062 12.921875 -2.9375 C 12.648438 -2.332031 12.273438 -1.789062 11.796875 -1.3125 C 11.328125 -0.84375 10.75 -0.46875 10.0625 -0.1875 C 9.375 0.0820312 8.578125 0.21875 7.671875 0.21875 C 6.285156 0.21875 5.109375 -0.09375 4.140625 -0.71875 C 3.171875 -1.351562 2.425781 -2.257812 1.90625 -3.4375 C 1.394531 -4.625 1.140625 -6.050781 1.140625 -7.71875 C 1.140625 -9.375 1.394531 -10.785156 1.90625 -11.953125 C 2.414062 -13.117188 3.15625 -14.007812 4.125 -14.625 C 5.101562 -15.238281 6.285156 -15.546875 7.671875 -15.546875 Z M 7.671875 -15.546875 "/></g></g></g><g fill="#000000" fill-opacity="1"><g transform="translate(223.549107, 195.036405)"><g><path d="M 0.875 0 L 6.421875 -15.328125 L 8.640625 -15.328125 L 14.1875 0 L 12.1875 0 L 10.671875 -4.203125 L 4.40625 -4.203125 L 2.875 0 Z M 4.90625 -6 L 10.15625 -6 L 7.546875 -13.390625 Z M 4.90625 -6 "/></g></g></g><g fill="#000000" fill-opacity="1"><g transform="translate(241.789734, 195.036405)"><g><path d="M 2.03125 0 L 2.03125 -15.328125 L 7.203125 -15.328125 C 8.304688 -15.328125 9.285156 -15.144531 10.140625 -14.78125 C 10.992188 -14.414062 11.664062 -13.867188 12.15625 -13.140625 C 12.644531 -12.421875 12.890625 -11.535156 12.890625 -10.484375 C 12.890625 -9.460938 12.660156 -8.59375 12.203125 -7.875 C 11.753906 -7.15625 11.117188 -6.609375 10.296875 -6.234375 C 9.484375 -5.859375 8.539062 -5.671875 7.46875 -5.671875 L 4.046875 -5.671875 L 4.046875 0 Z M 4.03125 -7.328125 L 7.4375 -7.328125 C 8.488281 -7.328125 9.34375 -7.617188 10 -8.203125 C 10.65625 -8.785156 10.984375 -9.582031 10.984375 -10.59375 C 10.984375 -11.613281 10.644531 -12.382812 9.96875 -12.90625 C 9.289062 -13.4375 8.414062 -13.703125 7.34375 -13.703125 L 4.03125 -13.703125 Z M 4.03125 -7.328125 "/></g></g></g><g fill="#000000" fill-opacity="1"><g transform="translate(258.471481, 195.036405)"><g><path d="M 2.03125 0 L 2.03125 -15.328125 L 11.6875 -15.328125 L 11.6875 -13.609375 L 4 -13.609375 L 4 -8.59375 L 10.921875 -8.59375 L 10.921875 -6.875 L 3.984375 -6.875 L 3.984375 -1.765625 L 11.890625 -1.75 L 11.890625 0 Z M 2.03125 0 "/></g></g></g></svg>